<svg width="965" height="1024" viewBox="0 0 965 1024" fill="none" xmlns="http://www.w3.org/2000/svg">
<g clip-path="url(#clip0_19_11)">
<rect width="965" height="1024" fill="white"/>
<path fill-rule="evenodd" clip-rule="evenodd" d="M412.215 -127.705C469.882 -133.269 507.723 -58.8802 547.013 -10.1797C579.04 29.5194 602.148 74.887 617.046 126.19C632.049 177.853 650.532 234.122 632.597 284.543C615.009 333.989 565.606 353.844 526.04 382.035C489.732 407.904 453.463 428.689 412.215 441.566C355.552 459.254 288.22 512.487 242.228 470.633C195.62 428.219 240.724 337.925 225.774 271.902C212.316 212.468 144.913 167.471 160.258 108.64C175.539 50.0532 251.668 53.0615 292.955 14.333C338.433 -28.3277 353.654 -122.055 412.215 -127.705Z" fill="#5A60CC"/>
<path fill-rule="evenodd" clip-rule="evenodd" d="M473.288 207.11C529.518 203.717 561.29 279.936 604.957 320.681C645.448 358.463 699.487 381.418 719.39 436.744C739.916 493.801 733.042 560.528 711.607 617.145C691.341 670.673 650.342 709.262 605.642 737.188C565.222 762.44 518.587 756.635 473.288 766.03C414.443 778.236 350.894 837.949 300.863 800.403C251.39 763.277 273.025 673.72 261.652 607.209C252.028 550.932 221.73 494.941 239.459 441.314C256.988 388.296 314.072 373.292 351.32 335.983C394.002 293.233 416.683 210.525 473.288 207.11Z" fill="#0A0C39"/>
<path fill-rule="evenodd" clip-rule="evenodd" d="M176.583 241.581C245.121 235.426 316.957 223.519 377.688 253.583C442.665 285.748 499.321 341.581 513.771 408.5C527.739 473.181 472.329 529.645 450.886 592.547C429.184 656.212 438.765 731.974 387.505 778.907C333.502 828.35 252.483 841.72 176.583 843.692C98.9843 845.708 13.8656 838.932 -43.1133 790.093C-98.2135 742.866 -91.0247 663.598 -111.565 596.714C-131.089 533.136 -183.229 471.186 -160.268 408.601C-137.349 346.13 -60.8547 318.462 1.94273 287.325C56.6166 260.216 114.859 247.124 176.583 241.581Z" fill="#2F3090"/>
<path fill-rule="evenodd" clip-rule="evenodd" d="M792.314 218.161C856.696 208.923 929.455 141.948 980.378 188.036C1031.91 234.674 995.858 331.983 1000.97 407.01C1004.63 460.628 1010.11 510.723 1006.02 564.301C1000.59 635.537 1018.71 721.185 973.269 770.18C927.919 819.077 854.574 794.14 792.314 794.718C729.435 795.302 661.838 813.014 609.216 773.56C555.719 733.448 521.216 660.626 516.067 587.592C511.348 520.679 562.016 469.415 583.362 406.9C602.884 349.731 593.539 275.505 635.608 237.505C677.907 199.298 738.876 225.829 792.314 218.161Z" fill="#232773"/>
<path fill-rule="evenodd" clip-rule="evenodd" d="M540.295 700.033C592.754 698.615 635.4 743.024 677.733 778.564C719.889 813.956 761.18 850.74 783.991 904.625C809.347 964.522 821.825 1031.02 812.417 1096.72C801.895 1170.2 788.653 1264.17 728.484 1292.26C665.995 1321.42 605.672 1242.84 540.295 1223.72C496.9 1211.04 449.816 1224.93 410.955 1199.42C369.247 1172.03 339.308 1127.62 318.38 1078.02C294.759 1022.05 266.787 958.888 284.69 900.191C302.528 841.704 362.852 820.821 407.486 785.869C450.503 752.184 488.211 701.441 540.295 700.033Z" fill="#8E5CC1"/>
<path fill-rule="evenodd" clip-rule="evenodd" d="M148.956 635.136C214.248 614.831 272.911 539.03 336.964 563.986C400.098 588.584 433.806 675.022 444.804 750.402C455.113 821.061 427.802 891.749 393.528 951.658C365.206 1001.16 308.196 1012.17 271.327 1053.62C223.925 1106.92 214.067 1211.71 148.956 1226.66C85.6753 1241.18 33.6393 1167.87 -15.0857 1119.36C-59.7704 1074.88 -113.379 1027.81 -118.668 960.244C-123.792 894.805 -68.2471 847.612 -40.8809 789.881C-19.8778 745.574 -12.9863 690.89 22.8659 661.665C58.5629 632.567 106.68 648.283 148.956 635.136Z" fill="#171A55"/>
<path fill-rule="evenodd" clip-rule="evenodd" d="M803.85 -150.73C846.657 -142.538 889.429 -136.936 925.688 -109.601C963.3 -81.2461 988.594 -39.2869 1011.02 5.45297C1039.3 61.864 1081.07 118.265 1072.11 182.509C1062.84 249.021 1016.2 303.837 964.86 336.606C916.587 367.416 858.054 366.003 803.85 353.724C757.014 343.115 721.286 305.924 683.274 272.818C646.222 240.548 610.381 209.095 585.793 163.811C554.439 106.064 510.524 44.5416 523.257 -21.89C536.111 -88.9559 592.758 -137.135 648.37 -162.671C697.797 -185.366 751.331 -160.78 803.85 -150.73Z" fill="#171A55"/>
<path fill-rule="evenodd" clip-rule="evenodd" d="M812.661 715.655C876.605 713.21 938.781 620.991 993.332 659.307C1046.47 696.629 1011.12 795.566 1025.42 865.09C1037.97 926.15 1080.6 978.909 1071.79 1040.82C1062.39 1106.85 1030.53 1176.7 977.178 1203.85C925.103 1230.36 869.559 1169.25 812.661 1172.69C750.102 1176.48 694.221 1248.01 635 1224.59C573.531 1200.28 530.563 1127.51 515.244 1055.08C500.38 984.807 533.278 916.233 555.464 848.54C576.535 784.251 585.916 701.017 640.54 672.794C695.408 644.446 752.51 717.954 812.661 715.655Z" fill="#2F3090"/>
<path fill-rule="evenodd" clip-rule="evenodd" d="M123.294 -171.967C175.754 -173.385 218.4 -128.976 260.733 -93.4356C302.889 -58.0439 344.18 -21.2599 366.991 32.6253C392.347 92.5225 404.824 159.024 395.417 224.72C384.895 298.199 371.653 392.174 311.483 420.257C248.995 449.421 188.672 370.84 123.294 351.725C79.8995 339.037 32.8156 352.933 -6.04466 327.418C-47.7526 300.034 -77.6919 255.618 -98.6199 206.023C-122.241 150.045 -150.213 86.8878 -132.31 28.1907C-114.472 -30.296 -54.1477 -51.1792 -9.51364 -86.131C33.5028 -119.816 71.2113 -170.559 123.294 -171.967Z" fill="#8E5CC1"/>
</g>
<defs>
<clipPath id="clip0_19_11">
<rect width="965" height="1024" fill="white"/>
</clipPath>
</defs>
</svg>
